<?xml version="1.0" encoding="iso-8859-1"?>
<!-- Generator: Adobe Illustrator 19.0.0, SVG Export Plug-In . SVG Version: 6.00 Build 0)  -->
<svg version="1.1" id="Capa_1" xmlns="http://www.w3.org/2000/svg" xmlns:xlink="http://www.w3.org/1999/xlink" x="0px" y="0px"
	 viewBox="0 0 60 60" style="enable-background:new 0 0 60 60;" xml:space="preserve">
<g>
	<g>
		<path d="M46,58H2V13h10c0.6,0,1-0.4,1-1V2h33v33h2V1c0-0.6-0.4-1-1-1H12l0,0c-0.1,0-0.2,0-0.3,0.1h-0.1c-0.1,0.1-0.2,0.1-0.3,0.2
			l0,0l-11,11l0,0c-0.1,0.1-0.1,0.2-0.2,0.3v0.1C0.1,11.8,0,11.9,0,12l0,0v47c0,0.6,0.4,1,1,1h46c0.6,0,1-0.4,1-1v-4h-2L46,58L46,58
			z M3.4,11l3.8-3.8L11,3.4V11H3.4z" fill="#d6d6c3"/>
		<path d="M59,38H46v2h12v10H6v2h53c0.6,0,1-0.4,1-1V39C60,38.4,59.6,38,59,38z" fill="#d6d6c3"/>
		<rect x="6" y="42" width="20" height="2" fill="#d6d6c3"/>
		<rect x="6" y="46" width="44" height="2" fill="#d6d6c3"/>
		<rect x="29" y="42" width="5" height="2" fill="#d6d6c3"/>
		<rect x="37" y="42" width="5" height="2" fill="#d6d6c3"/>
		<rect x="10" y="32" width="5" height="2" fill="#d6d6c3"/>
		<rect x="6" y="32" width="3" height="2" fill="#d6d6c3"/>
		<rect x="6" y="36" width="5" height="2" fill="#d6d6c3"/>
		<rect x="12" y="36" width="3" height="2" fill="#d6d6c3"/>
		<rect x="10" y="24" width="5" height="2" fill="#d6d6c3"/>
		<rect x="6" y="24" width="3" height="2" fill="#d6d6c3"/>
		<rect x="6" y="28" width="5" height="2" fill="#d6d6c3"/>
		<rect x="12" y="28" width="3" height="2" fill="#d6d6c3"/>
		<rect x="37" y="5" width="6" height="2" fill="#d6d6c3"/>
		<rect x="40" y="9" width="3" height="2" fill="#d6d6c3"/>
		<path d="M19,28v10h2V28c0-2.8,2.2-5,5-5h1.3l2.8,7.4c0.1,0.3,0.5,0.6,0.9,0.6s0.8-0.3,1.1-0.6l2.8-7.4H36c2.8,0,5,2.2,5,5v10h2V28
			c0-3.9-3.1-7-7-7H26C22.1,21,19,24.1,19,28z M31.1,27.2L29.5,23h3.2L31.1,27.2z" fill="#d6d6c3"/>
		<rect x="30" y="32" width="2" height="2" fill="#d6d6c3"/>
		<rect x="30" y="36" width="2" height="2" fill="#d6d6c3"/>
		<path d="M30,20h2c2.8,0,5-2.2,5-5v-3c0-2.8-2.2-5-5-5h-2c-2.8,0-5,2.2-5,5v3C25,17.8,27.2,20,30,20z M27,12c0-1.7,1.3-3,3-3h2
			c1.7,0,3,1.3,3,3v3c0,1.7-1.3,3-3,3h-2c-1.7,0-3-1.3-3-3V12z" fill="#d6d6c3"/>
		<rect x="24" y="31" width="2" height="7" fill="#d6d6c3"/>
		<rect x="36" y="31" width="2" height="7" fill="#d6d6c3"/>
	</g>
</g>
<g>
</g>
<g>
</g>
<g>
</g>
<g>
</g>
<g>
</g>
<g>
</g>
<g>
</g>
<g>
</g>
<g>
</g>
<g>
</g>
<g>
</g>
<g>
</g>
<g>
</g>
<g>
</g>
<g>
</g>
</svg>
